<?xml version="1.0" encoding="UTF-8" standalone="no"?>
<!-- Created with Inkscape (http://www.inkscape.org/) -->

<svg
   xmlns:dc="http://purl.org/dc/elements/1.1/"
   xmlns:cc="http://creativecommons.org/ns#"
   xmlns:rdf="http://www.w3.org/1999/02/22-rdf-syntax-ns#"
   xmlns:svg="http://www.w3.org/2000/svg"
   xmlns="http://www.w3.org/2000/svg"
   xmlns:sodipodi="http://sodipodi.sourceforge.net/DTD/sodipodi-0.dtd"
   xmlns:inkscape="http://www.inkscape.org/namespaces/inkscape"
   width="62mm"
   height="9mm"
   viewBox="0 0 62 9"
   version="1.1"
   id="svg8"
   inkscape:version="0.92.5 (2060ec1f9f, 2020-04-08)"
   sodipodi:docname="drawing.svg">
  <defs
     id="defs2">
    <clipPath
       id="clip0">
      <rect
         id="rect50"
         height="153"
         width="449"
         y="0"
         x="0" />
    </clipPath>
    <linearGradient
       id="fill1"
       spreadMethod="reflect"
       gradientUnits="userSpaceOnUse"
       y2="76.118202"
       x2="342.798"
       y1="76.118202"
       x1="106.202">
      <stop
         id="stop53"
         stop-color="#F25D62"
         offset="0" />
      <stop
         id="stop55"
         stop-color="#ED1C24"
         offset="0.5" />
      <stop
         id="stop57"
         stop-color="#C10016"
         offset="1" />
    </linearGradient>
    <clipPath
       clipPathUnits="userSpaceOnUse"
       id="clipPath97">
      <rect
         id="rect99"
         width="61.888676"
         height="8.6466799"
         x="95.078453"
         y="315.04712"
         style="stroke-width:0.26458332" />
    </clipPath>
  </defs>
  <sodipodi:namedview
     id="base"
     pagecolor="#ffffff"
     bordercolor="#666666"
     borderopacity="1.0"
     inkscape:pageopacity="0.0"
     inkscape:pageshadow="2"
     inkscape:zoom="2"
     inkscape:cx="233.72244"
     inkscape:cy="28.141674"
     inkscape:document-units="mm"
     inkscape:current-layer="layer1"
     showgrid="false"
     inkscape:pagecheckerboard="true"
     inkscape:window-width="1920"
     inkscape:window-height="1016"
     inkscape:window-x="0"
     inkscape:window-y="27"
     inkscape:window-maximized="1" />
  <metadata
     id="metadata5">
    <rdf:RDF>
      <cc:Work
         rdf:about="">
        <dc:format>image/svg+xml</dc:format>
        <dc:type
           rdf:resource="http://purl.org/dc/dcmitype/StillImage" />
        <dc:title></dc:title>
      </cc:Work>
    </rdf:RDF>
  </metadata>
  <g
     inkscape:label="Layer 1"
     inkscape:groupmode="layer"
     id="layer1"
     transform="translate(0,-288)">
    <g
       id="g93"
       clip-path="url(#clipPath97)"
       transform="translate(-94.985417,-26.590625)">
      <g
         transform="matrix(0.26458333,0,0,0.26458333,66.92679,299.48414)"
         id="g86"
         style="overflow:hidden">
        <g
           clip-path="url(#clip0)"
           id="g68">
          <rect
             style="fill:#ffffff"
             x="0"
             y="0"
             width="449"
             height="152.83"
             id="rect62" />
          <path
             style="fill:url(#fill1);fill-rule:evenodd"
             inkscape:connector-curvature="0"
             d="m 331.331,71.6782 c -1.69,0 -2.982,0.6149 -3.874,1.8446 -0.475,0.6495 -0.784,1.4592 -0.929,2.4289 -0.144,0.9698 -0.216,2.3061 -0.216,4.0088 0,1.7027 0.072,3.0388 0.216,4.0084 0.145,0.9695 0.454,1.7791 0.929,2.4286 0.889,1.2253 2.181,1.838 3.874,1.838 1.694,0 2.985,-0.6127 3.874,-1.838 0.479,-0.6539 0.791,-1.4723 0.937,-2.4553 0.146,-0.983 0.22,-2.3105 0.22,-3.9824 0,-1.6719 -0.074,-2.9992 -0.22,-3.982 -0.146,-0.9828 -0.458,-1.8011 -0.937,-2.455 -0.892,-1.2297 -2.183,-1.8446 -3.874,-1.8446 z m -55.211,0 c -1.016,0 -1.893,0.2527 -2.63,0.758 -0.737,0.5053 -1.269,1.1855 -1.595,2.0406 -0.353,0.9166 -0.541,1.9729 -0.563,3.1688 h 9.618 c -0.027,-1.219 -0.217,-2.2674 -0.571,-3.1452 -0.338,-0.8632 -0.888,-1.5494 -1.649,-2.0585 -0.761,-0.5091 -1.631,-0.7637 -2.61,-0.7637 z m -69.583,0 c -1.647,0 -2.904,0.4956 -3.771,1.4868 -0.343,0.393 -0.618,0.8317 -0.826,1.316 -0.208,0.4844 -0.355,1.0755 -0.444,1.7734 -0.088,0.6979 -0.141,1.2476 -0.158,1.6491 -0.018,0.4015 -0.026,1.0876 -0.026,2.0581 0,0.9706 0.008,1.6562 0.026,2.0568 0.017,0.4007 0.07,0.95 0.158,1.6478 0.089,0.6979 0.236,1.2889 0.444,1.7731 0.208,0.4841 0.483,0.9228 0.826,1.316 0.863,0.9868 2.12,1.4802 3.771,1.4802 1.65,0 2.907,-0.4934 3.77,-1.4802 0.347,-0.398 0.625,-0.8389 0.832,-1.3224 0.207,-0.4836 0.355,-1.0734 0.443,-1.7694 0.088,-0.6961 0.142,-1.271 0.162,-1.7249 0.019,-0.4538 0.029,-1.1137 0.029,-1.9794 0,-0.8658 -0.01,-1.5254 -0.029,-1.9787 -0.02,-0.4533 -0.074,-1.028 -0.162,-1.724 -0.088,-0.696 -0.235,-1.2857 -0.443,-1.7691 -0.207,-0.4833 -0.484,-0.9242 -0.832,-1.3224 -0.867,-0.9912 -2.123,-1.4868 -3.77,-1.4868 z m -77.417,0 c -1.016,0 -1.893,0.2527 -2.63,0.758 -0.737,0.5053 -1.269,1.1855 -1.595,2.0406 -0.353,0.9166 -0.541,1.9729 -0.563,3.1688 h 9.618 c -0.027,-1.219 -0.217,-2.2674 -0.571,-3.1452 -0.338,-0.8632 -0.888,-1.5494 -1.649,-2.0585 -0.761,-0.5091 -1.631,-0.7637 -2.61,-0.7637 z m 46.905,-3.2655 h 3.98 l 5.402,18.3013 5.401,-18.3013 h 3.988 L 187.2,91.501 h -3.588 z m 121.816,-0.329 c 1.438,0 2.708,0.3337 3.809,1.0013 1.101,0.6675 1.839,1.5059 2.212,2.5152 0.492,-1.0224 1.319,-1.8641 2.482,-2.5251 1.164,-0.6609 2.446,-0.9914 3.849,-0.9914 1.579,0 2.995,0.4246 4.248,1.2738 1.253,0.8491 2.155,2.0106 2.704,3.4844 0.194,0.5064 0.333,1.054 0.416,1.6427 0.083,0.5888 0.133,1.1243 0.15,1.6066 0.016,0.4822 0.025,1.0443 0.025,1.6861 V 91.501 h -3.949 V 77.9828 c 0,-0.8367 -0.007,-1.4383 -0.02,-1.8048 -0.012,-0.3665 -0.059,-0.7791 -0.14,-1.2379 -0.082,-0.4587 -0.193,-0.8365 -0.336,-1.1332 -0.319,-0.6608 -0.811,-1.1808 -1.477,-1.56 -0.666,-0.3791 -1.412,-0.5687 -2.237,-0.5687 -0.826,0 -1.57,0.1885 -2.232,0.5655 -0.662,0.3769 -1.153,0.898 -1.474,1.5632 -0.141,0.293 -0.252,0.67 -0.333,1.1311 -0.082,0.4611 -0.128,0.8417 -0.138,1.1419 -0.011,0.3001 -0.016,0.9345 -0.016,1.9029 V 91.501 h -3.949 V 77.9828 c 0,-0.8367 -0.006,-1.4383 -0.019,-1.8048 -0.013,-0.3665 -0.06,-0.7791 -0.141,-1.2379 -0.081,-0.4587 -0.193,-0.8365 -0.336,-1.1332 -0.318,-0.6608 -0.81,-1.1808 -1.476,-1.56 -0.666,-0.3791 -1.412,-0.5687 -2.238,-0.5687 -0.826,0 -1.57,0.1885 -2.232,0.5655 -0.662,0.3769 -1.153,0.898 -1.474,1.5632 -0.14,0.293 -0.251,0.67 -0.333,1.1311 -0.081,0.4611 -0.127,0.8417 -0.138,1.1419 -0.01,0.3001 -0.016,0.9345 -0.016,1.9029 V 91.501 h -3.948 V 68.4127 h 3.948 v 2.2827 c 1.089,-1.7411 2.692,-2.6117 4.809,-2.6117 z m -21.721,0 c 1.832,0 3.469,0.4812 4.91,1.4435 1.441,0.9623 2.472,2.2364 3.093,3.8223 0.358,0.9005 0.576,1.8025 0.656,2.706 0.08,0.9034 0.119,2.197 0.119,3.8807 v 1.0981 h -13.586 c 0,0.6891 0.012,1.2711 0.036,1.7462 0.024,0.475 0.125,1.0803 0.305,1.8158 0.179,0.7354 0.429,1.3311 0.75,1.7871 0.861,1.2347 2.238,1.8521 4.129,1.8521 1.767,0 3.802,-0.5003 6.106,-1.5008 l 1.396,3.1695 c -2.655,1.2839 -5.156,1.9258 -7.502,1.9258 -1.665,0 -3.137,-0.3124 -4.418,-0.9373 -1.28,-0.625 -2.297,-1.4887 -3.052,-2.5913 -0.54,-0.7727 -0.941,-1.673 -1.202,-2.7009 -0.26,-1.0279 -0.408,-1.8989 -0.444,-2.6129 -0.035,-0.7141 -0.053,-1.7243 -0.053,-3.0307 0,-1.0644 0.011,-1.8774 0.032,-2.4389 0.021,-0.5616 0.091,-1.2362 0.21,-2.0239 0.119,-0.7877 0.292,-1.3256 0.52,-1.6138 0.627,-1.9589 1.653,-3.4148 3.076,-4.3675 1.424,-0.9527 3.063,-1.4291 4.919,-1.4291 z m -13.279,0 c 0.582,0 1.36,0.1093 2.335,0.328 l -0.529,3.4517 c -1.07,-0.1235 -1.809,-0.1852 -2.218,-0.1852 -0.955,0 -1.778,0.2222 -2.47,0.6666 -0.692,0.4443 -1.195,1.0486 -1.508,1.8128 -0.279,0.6713 -0.419,1.9053 -0.419,3.702 V 91.501 h -3.948 V 68.4127 h 3.948 v 2.3443 c 0.267,-0.8323 0.847,-1.486 1.739,-1.9609 0.893,-0.4749 1.916,-0.7124 3.07,-0.7124 z m -33.588,0 c 1.605,0 3.068,0.4265 4.389,1.2796 1.321,0.8532 2.264,1.9851 2.829,3.396 0.262,0.6263 0.441,1.2614 0.539,1.9051 0.098,0.6437 0.156,1.2275 0.172,1.7514 0.017,0.5238 0.026,1.1284 0.026,1.8138 V 91.501 h -3.949 V 78.4354 c 0,-1.2763 -0.026,-2.1917 -0.079,-2.7462 -0.052,-0.5544 -0.193,-1.0813 -0.424,-1.5804 -0.347,-0.7675 -0.888,-1.3645 -1.622,-1.7909 -0.735,-0.4265 -1.567,-0.6397 -2.497,-0.6397 -0.93,0 -1.76,0.2121 -2.491,0.6364 -0.731,0.4243 -1.271,1.0223 -1.62,1.7942 -0.229,0.4959 -0.368,1.0095 -0.418,1.541 -0.051,0.5314 -0.076,1.4599 -0.076,2.7856 V 91.501 h -3.948 V 68.4127 h 3.948 v 2.3443 c 1.199,-1.7822 2.939,-2.6733 5.221,-2.6733 z m -22.72,0 c 1.411,0 2.705,0.2502 3.881,0.7507 1.176,0.5006 2.138,1.1599 2.885,1.978 0.576,0.6323 1.042,1.3237 1.4,2.0744 0.357,0.7506 0.602,1.5655 0.733,2.4448 0.132,0.8792 0.213,1.6367 0.244,2.2724 0.031,0.6357 0.046,1.421 0.046,2.3558 0,0.9348 -0.015,1.7203 -0.046,2.3563 -0.031,0.6361 -0.112,1.3937 -0.244,2.273 -0.131,0.8792 -0.376,1.694 -0.733,2.4444 -0.358,0.7505 -0.824,1.4419 -1.4,2.0743 -0.747,0.8184 -1.707,1.4767 -2.877,1.9749 -1.171,0.4982 -2.467,0.7473 -3.889,0.7473 -1.422,0 -2.716,-0.2482 -3.883,-0.7447 -1.167,-0.4964 -2.126,-1.1556 -2.876,-1.9775 -0.571,-0.6272 -1.035,-1.3164 -1.393,-2.0676 -0.358,-0.7512 -0.603,-1.5673 -0.735,-2.4485 -0.132,-0.8812 -0.212,-1.6158 -0.24,-2.2038 -0.029,-0.588 -0.043,-1.397 -0.043,-2.4271 0,-1.0301 0.014,-1.8394 0.043,-2.4279 0.028,-0.5886 0.108,-1.3235 0.24,-2.2048 0.132,-0.8813 0.377,-1.6973 0.735,-2.4482 0.357,-0.7509 0.822,-1.44 1.393,-2.0675 0.75,-0.8216 1.711,-1.4818 2.883,-1.9806 1.172,-0.4987 2.464,-0.7481 3.876,-0.7481 z m -41.28,0 c 1.605,0 3.068,0.4265 4.389,1.2796 1.321,0.8532 2.264,1.9851 2.829,3.396 0.262,0.6263 0.441,1.2614 0.539,1.9051 0.098,0.6437 0.156,1.2275 0.172,1.7514 0.017,0.5238 0.026,1.1284 0.026,1.8138 V 91.501 h -3.949 V 78.4354 c 0,-1.2763 -0.026,-2.1917 -0.079,-2.7462 -0.052,-0.5544 -0.193,-1.0813 -0.424,-1.5804 -0.347,-0.7675 -0.888,-1.3645 -1.622,-1.7909 -0.735,-0.4265 -1.567,-0.6397 -2.497,-0.6397 -0.93,0 -1.76,0.2121 -2.491,0.6364 -0.731,0.4243 -1.271,1.0223 -1.62,1.7942 -0.229,0.4959 -0.368,1.0095 -0.418,1.541 -0.051,0.5314 -0.076,1.4599 -0.076,2.7856 V 91.501 h -3.948 V 68.4127 h 3.948 v 2.3443 c 1.199,-1.7822 2.939,-2.6733 5.221,-2.6733 z m -14.412,0 c 0.582,0 1.36,0.1093 2.335,0.328 l -0.529,3.4517 c -1.07,-0.1235 -1.809,-0.1852 -2.218,-0.1852 -0.955,0 -1.778,0.2222 -2.47,0.6666 -0.692,0.4443 -1.195,1.0486 -1.508,1.8128 -0.279,0.6713 -0.419,1.9053 -0.419,3.702 V 91.501 h -3.948 V 68.4127 h 3.948 v 2.3443 c 0.267,-0.8323 0.847,-1.486 1.739,-1.9609 0.893,-0.4749 1.916,-0.7124 3.07,-0.7124 z m -21.721,0 c 1.832,0 3.469,0.4812 4.91,1.4435 1.442,0.9623 2.472,2.2364 3.093,3.8223 0.358,0.9005 0.576,1.8025 0.656,2.706 0.08,0.9034 0.119,2.197 0.119,3.8807 v 1.0981 h -13.586 c 0,0.6891 0.012,1.2711 0.036,1.7462 0.024,0.475 0.125,1.0803 0.305,1.8158 0.179,0.7354 0.429,1.3311 0.75,1.7871 0.861,1.2347 2.238,1.8521 4.129,1.8521 1.767,0 3.802,-0.5003 6.106,-1.5008 l 1.396,3.1695 c -2.655,1.2839 -5.156,1.9258 -7.502,1.9258 -1.665,0 -3.137,-0.3124 -4.418,-0.9373 -1.28,-0.625 -2.297,-1.4887 -3.052,-2.5913 -0.54,-0.7727 -0.941,-1.673 -1.202,-2.7009 -0.26,-1.0279 -0.408,-1.8989 -0.444,-2.6129 -0.035,-0.7141 -0.053,-1.7243 -0.053,-3.0307 0,-1.0644 0.011,-1.8774 0.032,-2.4389 0.021,-0.5616 0.091,-1.2362 0.21,-2.0239 0.119,-0.7877 0.292,-1.3256 0.52,-1.6138 0.627,-1.9589 1.653,-3.4148 3.076,-4.3675 1.424,-0.9527 3.063,-1.4291 4.919,-1.4291 z m 207.242,-8.184 h 3.948 V 91.501 h -3.948 v -2.3646 c -1.217,1.7957 -3.033,2.6936 -5.448,2.6936 -1.473,0 -2.81,-0.3177 -4.01,-0.9532 -1.2,-0.6356 -1.964,-1.4145 -2.293,-2.3369 -1.077,-1.2157 -1.721,-2.4481 -1.932,-3.6971 -0.211,-1.2489 -0.316,-2.8765 -0.316,-4.8827 0,-2.0061 0.105,-3.6336 0.316,-4.8825 0.211,-1.2489 0.851,-2.4835 1.921,-3.7038 0.336,-0.918 1.106,-1.6959 2.31,-2.3336 1.205,-0.6377 2.54,-0.9565 4.004,-0.9565 2.411,0 4.227,0.898 5.448,2.694 z M 249.4,59.5707 c 0.828,0 1.935,0.1503 3.323,0.4509 l -0.657,3.452 c -1.188,-0.2058 -2.077,-0.3087 -2.666,-0.3087 -0.806,0 -1.4,0.2701 -1.783,0.8101 -0.246,0.3511 -0.4,0.763 -0.462,1.2358 -0.062,0.4727 -0.093,1.2618 -0.093,2.3672 v 0.8347 h 4.117 v 3.3887 h -4.117 V 91.501 h -3.949 V 71.8014 h -3.088 v -3.3887 h 3.088 V 67.578 c 0,-0.9317 0.014,-1.6333 0.043,-2.1046 0.029,-0.4713 0.133,-1.0324 0.314,-1.6832 0.181,-0.6508 0.463,-1.249 0.847,-1.7945 1.144,-1.6166 2.838,-2.425 5.083,-2.425 z m -133,0 c 0.828,0 1.935,0.1503 3.323,0.4509 l -0.657,3.452 c -1.188,-0.2058 -2.077,-0.3087 -2.666,-0.3087 -0.806,0 -1.4,0.2701 -1.783,0.8101 -0.246,0.3511 -0.4,0.763 -0.462,1.2358 -0.062,0.4727 -0.093,1.2618 -0.093,2.3672 v 0.8347 h 4.117 v 3.3887 h -4.117 V 91.501 h -3.949 V 71.8014 h -3.088 v -3.3887 h 3.088 V 67.578 c 0,-0.9317 0.014,-1.6333 0.043,-2.1046 0.029,-0.4713 0.133,-1.0324 0.314,-1.6832 0.181,-0.6508 0.463,-1.249 0.847,-1.7945 1.144,-1.6166 2.838,-2.425 5.083,-2.425 z"
             id="path64" />
          <text
             style="font-size:32.25930023px;font-family:Arial, Arial_MSFontService, sans-serif;fill:#000000;fill-opacity:0"
             font-size="32.2593"
             x="107.025"
             y="87.7976"
             id="text66">fernvonfremd</text>
        </g>
      </g>
    </g>
  </g>
</svg>
